<svg width="92" height="92" viewBox="0 0 92 92" fill="none" xmlns="http://www.w3.org/2000/svg">
<g clip-path="url(#clip0_723_31)">
<path d="M17.5797 35.8264C17.1086 35.8177 16.6486 35.9705 16.2764 36.2596C15.9063 36.5489 15.641 36.9515 15.5212 37.4058L10.5034 56.1737H14.0377C14.4989 56.1786 14.9479 56.0258 15.3104 55.7406C15.6794 55.461 15.9483 55.0697 16.0771 54.6251L19.7878 40.8097H22.6398C23.0628 40.8076 23.48 40.9089 23.8549 41.1049C24.2148 41.2871 24.5292 41.5478 24.7749 41.8677C25.0146 42.1875 25.1832 42.5547 25.2694 42.9449C25.3631 43.358 25.3499 43.7881 25.2311 44.1946C25.0846 44.7708 24.7503 45.2818 24.2811 45.647C23.8118 46.0121 23.2343 46.2105 22.6398 46.2109H21.1639C20.6967 46.2048 20.2412 46.3575 19.8721 46.6441C19.5031 46.9237 19.2342 47.3149 19.1054 47.7596L18.1854 51.1942H22.7893C24.0185 51.197 25.2291 50.8948 26.3129 50.3148C27.3967 49.7348 28.3197 48.895 28.9993 47.8707C29.4575 47.1821 29.8006 46.4234 30.0151 45.6244L30.1186 45.2411C30.4393 44.1083 30.4735 42.9136 30.2183 41.7643C29.9813 40.6687 29.5038 39.6395 28.8203 38.7511C28.1367 37.8628 27.2643 37.1374 26.2661 36.6276C25.2242 36.0879 24.066 35.8115 22.8928 35.8226H17.5836L17.5797 35.8264ZM88.2933 35.8264C87.9476 35.8204 87.6099 35.9312 87.3349 36.1408C87.0637 36.3462 86.8736 36.6408 86.7983 36.9726L81.6846 56.1776C82.4286 56.1805 83.1676 56.0561 83.8696 55.8096C84.5528 55.5711 85.1943 55.2271 85.7709 54.7899C86.3442 54.3518 86.8426 53.8236 87.2468 53.2259C87.6638 52.6058 87.9675 51.9166 88.1438 51.1904L91.9618 37.0224C92.0054 36.8805 92.0125 36.7298 91.9823 36.5844C91.9521 36.4389 91.8857 36.3035 91.7893 36.1906C91.6988 36.0742 91.5824 35.9806 91.4492 35.9174C91.3161 35.8541 91.17 35.823 91.0226 35.8264H88.2933ZM32.1272 40.7982L31.6174 42.7264C31.5322 43.0523 31.5243 43.3936 31.5944 43.7231C31.6568 44.0307 31.7878 44.3203 31.9777 44.5702C32.1678 44.8168 32.41 45.0184 32.6869 45.1606C32.9849 45.316 33.3168 45.395 33.6529 45.3906H41.9214C41.9828 45.3876 42.044 45.3992 42.1 45.4245C42.156 45.4499 42.2052 45.4882 42.2434 45.5362C42.279 45.5839 42.3028 45.6393 42.3128 45.698C42.3228 45.7566 42.3187 45.8168 42.3009 45.8736L42.2243 46.1496L40.9822 50.7534L40.9324 50.9642C40.9001 51.1258 40.8085 51.2694 40.6756 51.3667C40.5349 51.4706 40.3636 51.5246 40.1888 51.5201H35.1824C35.094 51.5223 35.0062 51.5037 34.9263 51.4658C34.8464 51.4278 34.7766 51.3716 34.7224 51.3016C34.664 51.2343 34.6238 51.1531 34.6057 51.0659C34.5876 50.9787 34.5921 50.8882 34.6189 50.8032C34.7032 50.5196 34.8911 50.3739 35.1824 50.3739H38.2797C38.7404 50.3792 39.1891 50.2278 39.5524 49.9446C39.9221 49.6624 40.191 49.2685 40.3191 48.8214L40.8251 46.9124H33.8867C33.3905 46.9115 32.8978 46.9958 32.4301 47.1616C31.9839 47.3187 31.5658 47.5465 31.1919 47.8362C30.8124 48.129 30.4813 48.4796 30.2106 48.8751C29.9325 49.2773 29.7299 49.7267 29.6126 50.2014L29.5053 50.5847C29.3206 51.2513 29.3034 51.9532 29.4554 52.6279C29.596 53.2721 29.8732 53.8786 30.2681 54.4066C30.6789 54.9501 31.211 55.3901 31.8219 55.6916C32.4329 55.9931 33.1058 56.1477 33.7871 56.1431L42.0556 56.1661C42.8204 56.1709 43.5651 55.9211 44.1724 55.4561C44.7796 54.9912 45.2149 54.3374 45.4097 53.5977L47.4223 46.1227C47.5903 45.4782 47.6035 44.803 47.4606 44.1524C47.3279 43.5339 47.0595 42.9525 46.6747 42.4504C46.2845 41.9526 45.7916 41.5447 45.2296 41.2544C44.6411 40.9455 43.9852 40.7875 43.3206 40.7944H32.1234L32.1272 40.7982ZM7.60542 40.8366C6.77289 40.8343 5.94598 40.973 5.15975 41.2467C4.39781 41.5093 3.68232 41.891 3.03992 42.3776C1.7301 43.3822 0.787187 44.7898 0.356582 46.3834L0.253082 46.7667C-0.0500626 47.8999 -0.0802774 49.0888 0.164915 50.2359C0.395451 51.331 0.8683 52.3605 1.54875 53.2489C2.23531 54.1369 3.10974 54.8621 4.10942 55.3726C5.1513 55.9122 6.30945 56.1886 7.48275 56.1776H9.26142L10.2811 52.4094C10.3244 52.2692 10.332 52.1203 10.3032 51.9764C10.2744 51.8325 10.2102 51.698 10.1162 51.5852C10.0285 51.4676 9.91371 51.3727 9.78162 51.3087C9.64953 51.2447 9.50399 51.2133 9.35725 51.2172H7.73575C7.31147 51.2204 6.89246 51.1232 6.51292 50.9336C6.15216 50.7596 5.8371 50.5036 5.59292 50.1861C5.35599 49.8657 5.19003 49.4985 5.10608 49.1089C5.01245 48.6778 5.02561 48.2304 5.14442 47.8056C5.30894 47.2315 5.65281 46.7251 6.12575 46.3604C6.58682 46.0056 7.15401 45.8166 7.73575 45.8238H10.4076C10.8766 45.8297 11.3336 45.6755 11.7032 45.3867C12.0749 45.1006 12.3428 44.7008 12.4661 44.2482L13.3554 40.8366H7.60542ZM50.0788 40.8366L46.3144 54.9777C46.2708 55.1197 46.2637 55.2704 46.2939 55.4158C46.324 55.5612 46.3904 55.6967 46.4869 55.8096C46.5737 55.9252 46.6868 56.0185 46.8168 56.0818C46.9467 56.1451 47.0899 56.1766 47.2344 56.1737H49.9599C50.3016 56.1768 50.6351 56.0692 50.9106 55.8671C51.1843 55.6735 51.379 55.3877 51.4587 55.0621L53.9274 45.8238H56.7832C57.2069 45.8188 57.6254 45.9175 58.0022 46.1112C58.3594 46.2961 58.671 46.5579 58.9146 46.8779C59.1534 47.1967 59.322 47.5625 59.4091 47.9512C59.5034 48.3655 59.4902 48.797 59.3707 49.2047L57.8451 54.9777C57.8032 55.1189 57.7954 55.268 57.8223 55.4128C57.8492 55.5575 57.91 55.6939 57.9998 55.8106C58.0896 55.9273 58.2057 56.0211 58.3388 56.0842C58.4718 56.1473 58.6179 56.178 58.7651 56.1737H61.4983C61.8351 56.1762 62.1636 56.0686 62.4336 55.8671C62.7088 55.67 62.9035 55.38 62.9818 55.0506L64.2544 50.2666C64.5728 49.1325 64.611 47.938 64.3656 46.7859C64.1372 45.6855 63.6643 44.6505 62.9818 43.7576C62.2951 42.8697 61.4207 42.1445 60.4211 41.6339C59.3724 41.0946 58.2078 40.8196 57.0286 40.8328L50.0788 40.8366ZM72.2853 40.8366C71.6486 40.8328 71.0159 40.9378 70.4146 41.1471C69.2368 41.5537 68.2244 42.3345 67.5319 43.3704C67.1744 43.9024 66.9087 44.4907 66.7461 45.1107L65.1898 50.8799C65.005 51.5134 64.9839 52.1834 65.1284 52.8272C65.263 53.4475 65.5312 54.0309 65.9143 54.5369C66.2996 55.0395 66.7936 55.4484 67.3594 55.7329C67.9509 56.0318 68.6058 56.183 69.2684 56.1737H78.8594C79.3206 56.1786 79.7696 56.0258 80.1321 55.7406C80.501 55.461 80.7699 55.0697 80.8988 54.6251L81.7038 51.5929H71.1698C71.0528 51.5917 70.9376 51.5637 70.8331 51.5111C70.7286 51.4585 70.6375 51.3826 70.5669 51.2894C70.4962 51.1961 70.4478 51.088 70.4254 50.9731C70.403 50.8583 70.4072 50.7399 70.4376 50.6269L71.5838 46.3067C71.6635 46.0614 71.8143 45.8453 72.0169 45.6857C72.2112 45.5259 72.4553 45.4391 72.7069 45.4404H77.4296C77.5195 45.4408 77.608 45.4619 77.6885 45.5019C77.7689 45.542 77.8391 45.6 77.8936 45.6715C77.948 45.743 77.9853 45.8261 78.0026 45.9143C78.0198 46.0025 78.0166 46.0935 77.9931 46.1802L77.8934 46.5636C77.8091 46.8511 77.6213 46.9967 77.3338 46.9967H74.2288C73.7598 46.9867 73.3014 47.1368 72.9293 47.4222C72.5642 47.7022 72.3059 48.0985 72.1971 48.5454L71.6873 50.4237H79.3693C80.1259 50.4322 80.8638 50.1881 81.4661 49.7299C82.0759 49.2723 82.5092 48.6184 82.6928 47.8784L83.1528 46.1534C83.3227 45.5108 83.3398 44.8373 83.2026 44.1869C83.0765 43.5688 82.8103 42.9878 82.4244 42.4887C82.0371 41.9901 81.5467 41.5809 80.9869 41.2889C80.3982 40.9812 79.7422 40.8245 79.0779 40.8328L72.2853 40.8366Z" fill="black"/>
</g>
<defs>
<clipPath id="clip0_723_31">
<rect width="92" height="92" fill="white"/>
</clipPath>
</defs>
</svg>
