<svg width="99" height="99" viewBox="0 0 99 99" fill="none" xmlns="http://www.w3.org/2000/svg">
<path d="M35.0625 8.25C31.7804 8.25 28.6328 9.55379 26.3121 11.8746C23.9913 14.1953 22.6875 17.3429 22.6875 20.625C22.6875 23.9071 23.9913 27.0547 26.3121 29.3754C28.6328 31.6962 31.7804 33 35.0625 33H63.9375C67.2196 33 70.3672 31.6962 72.6879 29.3754C75.0087 27.0547 76.3125 23.9071 76.3125 20.625C76.3125 17.3429 75.0087 14.1953 72.6879 11.8746C70.3672 9.55379 67.2196 8.25 63.9375 8.25H35.0625ZM63.9375 37.125C60.6554 37.125 57.5078 38.4288 55.1871 40.7495C52.8663 43.0703 51.5625 46.2179 51.5625 49.5C51.5625 52.782 52.8663 55.9297 55.1871 58.2504C57.5078 60.5712 60.6554 61.875 63.9375 61.875C67.2196 61.875 70.3672 60.5712 72.6879 58.2504C75.0087 55.9297 76.3125 52.782 76.3125 49.5C76.3125 46.2179 75.0087 43.0703 72.6879 40.7495C70.3672 38.4288 67.2196 37.125 63.9375 37.125ZM22.6875 49.5C22.6875 46.2179 23.9913 43.0703 26.3121 40.7495C28.6328 38.4288 31.7804 37.125 35.0625 37.125H47.4375V61.875H35.0625C31.7804 61.875 28.6328 60.5712 26.3121 58.2504C23.9913 55.9297 22.6875 52.782 22.6875 49.5ZM35.0625 66C32.615 66 30.2224 66.7258 28.1873 68.0856C26.1523 69.4453 24.5661 71.378 23.6295 73.6393C22.6929 75.9005 22.4478 78.3887 22.9253 80.7892C23.4028 83.1898 24.5814 85.3948 26.3121 87.1254C28.0427 88.8561 30.2477 90.0347 32.6483 90.5122C35.0488 90.9897 37.537 90.7446 39.7982 89.808C42.0594 88.8714 43.9922 87.2852 45.3519 85.2502C46.7117 83.2151 47.4375 80.8225 47.4375 78.375V66H35.0625Z" fill="black"/>
</svg>
