<svg width="94" height="94" viewBox="0 0 94 94" fill="none" xmlns="http://www.w3.org/2000/svg">
<g clip-path="url(#clip0_723_41)">
<path fill-rule="evenodd" clip-rule="evenodd" d="M46.859 0C34.4317 0.00155779 22.5138 4.93897 13.7264 13.7264C4.93897 22.5138 0.00155779 34.4317 0 46.859C0 67.5507 13.5125 85.0876 31.9071 91.415C34.2101 91.7029 35.0679 90.2635 35.0679 89.112V81.0633C22.137 83.942 19.2641 74.7418 19.2641 74.7418C17.249 69.278 14.0883 67.8386 14.0883 67.8386C9.776 64.9657 14.3703 64.9657 14.3703 64.9657C18.9704 65.2536 21.5613 69.8538 21.5613 69.8538C25.8735 77.0389 32.4829 75.0237 35.0737 73.8781C35.3557 70.7174 36.7951 68.7081 37.9466 67.5566C27.5949 66.4051 16.6733 62.3807 16.6733 44.2681C16.6733 39.0981 18.3946 35.0679 21.5613 31.6192C21.2675 30.7556 19.5461 25.8735 22.137 19.5461C22.137 19.5461 26.1614 18.3946 35.0679 24.4341C38.8044 23.2826 42.8346 22.9948 46.859 22.9948C50.8834 22.9948 54.9078 23.5705 58.6443 24.4341C67.5566 18.4005 71.581 19.5461 71.581 19.5461C74.166 25.8735 72.4388 30.7556 72.1509 31.9071C75.3169 35.3562 77.0628 39.8742 77.0389 44.556C77.0389 62.6686 66.1114 66.4051 55.7714 67.5566C57.4928 68.9901 58.9321 71.863 58.9321 76.1752V89.112C58.9321 90.2635 59.7899 91.697 62.0929 91.415C71.4107 88.2704 79.5045 82.2768 85.2301 74.2813C90.9558 66.2859 94.0236 56.6931 94 46.859C93.7121 20.9855 72.7325 0 46.859 0Z" fill="black"/>
</g>
<defs>
<clipPath id="clip0_723_41">
<rect width="94" height="94" fill="white"/>
</clipPath>
</defs>
</svg>
