<svg width="106" height="106" viewBox="0 0 106 106" fill="none" xmlns="http://www.w3.org/2000/svg">
<path d="M59.5053 105.774C58.124 105.533 56.693 104.877 55.8814 104.151C55.3305 103.573 55.0161 102.81 55.0003 102.011C55.0003 101.2 55.4144 100.06 56.0702 98.9242C56.4677 98.2849 56.7791 97.5959 57.0011 96.8704C57.1402 96.3702 57.4317 95.5587 57.6569 95.0419L58.0544 94.0946L58.1571 87.7644C58.2101 84.2631 58.3128 81.0201 58.3989 80.5166C58.6242 79.0657 59.0018 77.6513 59.502 76.2733L59.8829 75.3591L59.3297 75.0311C58.8296 74.7197 58.4155 74.2891 56.7758 72.3381C54.7585 69.9564 52.1019 68.6446 48.3389 68.1974C47.1132 68.0782 45.8711 67.9887 44.6289 67.9391C39.1069 67.6807 35.9501 66.5246 33.1047 63.7289C30.9814 61.642 29.8783 59.2073 29.4311 55.6199C28.8282 50.7704 28.1558 48.286 26.9136 46.2687C26.6075 45.7705 26.2548 45.3024 25.8602 44.8708L25.3601 44.3706L24.257 45.0795C23.6541 45.477 22.8061 45.9772 22.3921 46.2024C21.0107 46.961 19.699 47.8057 18.4402 48.7199C15.353 50.9625 11.9875 53.7748 10.1424 55.6199C9.31431 56.448 8.88368 56.8091 8.69156 56.7759C7.43281 56.5871 8.39675 51.1347 10.4505 47.0272C13.074 41.7306 17.4896 36.8479 22.5974 33.552C26.7911 30.8424 33.5717 27.1158 36.7087 25.8041C42.2803 23.4754 49.4916 20.9546 54.4272 19.6097C55.4641 19.3149 56.1001 19.0565 56.5307 18.765C57.4979 18.0926 58.4453 17.7646 59.5318 17.7481C60.4461 17.7315 60.5322 17.7149 61.4133 17.1253C62.4501 16.4529 62.7582 16.4164 63.795 16.7808L64.4674 17.0226L65.2956 16.4529L66.1237 15.8997L67.3129 15.9162C68.2271 15.9328 68.6412 15.8997 69.0387 15.7274C69.5389 15.5022 69.5554 15.4691 69.6946 14.6409C70.0059 12.8456 70.0391 11.9479 69.8502 10.8614C69.6084 9.43037 69.5753 3.8753 69.8171 2.78549C70.0755 1.61287 70.2477 1.37105 71.1289 0.94043C72.4406 0.301117 73.4244 0.112305 75.6836 0.112305C78.4429 0.112305 79.8407 0.493242 80.8776 1.49362C81.8084 2.3913 81.9641 4.49474 81.4804 9.43037C81.1856 12.2758 81.1525 13.0708 81.2386 14.9324C81.2717 16.1216 81.3579 17.2446 81.3943 17.4002C81.4639 17.6951 81.5334 17.7116 82.5338 17.7282C83.5176 17.7447 83.6899 17.7977 84.6207 18.2814C85.5184 18.7484 86.1908 19.3182 86.3299 19.7322C86.3465 19.8184 86.5022 19.8184 86.7771 19.7322C87.3104 19.5766 87.7775 19.7488 88.1584 20.2159C88.3837 20.5107 88.5195 20.5604 89.0396 20.5604C89.7484 20.5604 90.0068 20.7326 90.5931 21.5972C90.8674 21.9852 91.2433 22.2901 91.6796 22.4783C92.6469 22.9619 93.9586 24.3068 94.4588 25.3767C95.2339 26.9634 95.3896 28.8085 94.906 30.4647C94.7337 31.0875 94.7337 31.1041 95.0948 31.7069C95.8534 33.0021 96.1316 34.5888 95.8202 35.9337L95.648 36.7287L96.1647 37.2454C98.7352 39.8159 98.3543 44.0096 95.2174 47.7527C94.8668 48.1802 94.5708 48.6498 94.3362 49.1506C93.7334 50.7538 93.0411 51.8767 92.1467 52.8076L91.2324 53.7384H90.3016C89.3708 53.7384 88.0591 53.427 87.2641 53.0129C86.9361 52.8407 86.9196 52.8407 86.9891 53.0461C87.1978 53.8046 87.7146 56.8919 87.8868 58.6011C88.1617 61.2246 88.0756 65.0373 87.7146 66.677C87.4507 67.8914 87.0086 69.0601 86.4028 70.1452C86.0583 70.6984 86.0417 70.8176 86.108 71.4901C86.2107 72.4374 85.9887 74.0274 85.6078 75.0775C85.1407 76.3031 84.9685 76.8729 84.8658 77.4923C84.7797 78.0256 84.7797 78.0256 85.1606 78.0256C85.6608 78.0256 85.9357 78.3204 85.9357 78.9067C85.9357 79.1651 85.7105 80.563 85.4356 81.994C84.677 86.0154 84.624 86.4626 84.624 90.3614C84.6074 94.3827 84.6074 94.3463 85.5217 94.9492L87.5754 96.2775C89.3423 97.4502 91.2344 98.4224 93.2166 99.1759C96.0985 100.315 96.496 100.607 96.496 101.574C96.496 102.005 96.4099 102.16 96.0488 102.505C94.9457 103.575 92.7694 103.817 88.387 103.35C86.1098 103.136 83.824 103.027 81.5367 103.022C75.4981 102.936 74.6169 102.727 73.8252 101.226C73.3781 100.365 73.4642 99.2422 74.0836 97.3971C74.3586 96.5856 74.6004 95.7574 74.8091 94.9127C75.2231 92.912 74.9482 90.5303 73.9809 87.8406L73.1528 85.545C72.3412 83.2163 71.8941 78.9531 72.3777 77.9892C72.4638 77.8004 72.6195 77.7639 73.0336 77.7805L73.5503 77.8335L73.9809 76.9358C74.3089 76.2269 74.6699 75.7632 75.6537 74.7794L76.9125 73.5206L76.8429 72.7091C76.7899 71.9339 75.773 68.1709 75.6339 68.1875C75.5809 68.1875 75.3059 68.5684 74.9946 69.0487C74.236 70.1882 72.5632 71.9472 71.6125 72.5865C71.1984 72.8614 70.8539 73.1894 70.8539 73.2954C70.8374 73.7624 70.4399 74.6767 69.9562 75.3127C69.4892 75.9354 69.4561 76.0381 69.5256 76.588C69.6449 77.3996 69.3865 80.0032 69.0784 81.3679C68.7992 82.3813 68.4174 83.3636 67.9389 84.2995C66.7497 86.7673 65.8521 88.9734 65.6268 89.9937C65.4641 90.9759 65.3602 91.967 65.3154 92.9617C65.2624 94.1343 65.1432 95.2738 65.0571 95.5156C64.9378 95.8436 64.9378 96.1019 65.0405 96.6021C65.1266 96.9632 65.1796 97.7747 65.1597 98.4141C65.1432 99.2952 65.2127 99.8649 65.4711 100.898C65.9183 102.657 66.0044 103.764 65.7991 104.42C65.6599 104.834 65.5241 104.989 65.0571 105.215C64.0202 105.748 61.0887 106.043 59.502 105.768L59.5053 105.774ZM63.6956 104.36C64.2985 104.188 64.8186 103.671 64.8186 103.204C64.8186 102.995 64.6463 102.392 64.4376 101.859C64.0236 100.842 63.3147 98.1491 63.3147 97.7019C63.3147 97.4766 63.3312 97.4601 63.6757 97.6489L64.0567 97.8576V97.3739C64.0014 96.9281 63.9027 96.4888 63.7619 96.0622C63.4339 95.0784 63.4008 95.0618 61.3106 94.9392L59.8962 94.8697L59.3794 95.3699C59.0953 95.6623 58.8463 95.9869 58.6374 96.3371C58.4122 96.7843 58.3261 97.4601 58.4652 97.6124C58.4983 97.6654 58.8461 97.6124 59.2237 97.5263C59.4479 97.4596 59.6792 97.4195 59.9127 97.4071C59.9127 97.4236 59.5318 97.735 59.0515 98.0629C56.9812 99.6165 56.2557 100.564 56.2557 101.773C56.2557 103.032 57.4449 104.015 59.3099 104.31C60.5852 104.499 63.0696 104.552 63.6923 104.363L63.6956 104.36ZM91.7657 102.306C92.2825 101.683 92.2129 101.047 91.5571 100.322C91.1761 99.9411 90.7455 99.6132 90.2619 99.3548C89.7782 99.0964 89.2946 98.8016 88.811 98.4936C87.9363 97.9266 87.0378 97.3972 86.1179 96.9069C85.3229 96.4762 84.5478 96.0257 83.7892 95.5454L83.4779 95.3036V90.5601C83.4779 85.8862 83.4613 85.8166 83.2195 85.8862C82.0104 86.2141 80.0097 86.3698 77.4756 86.3168L74.7329 86.2837L75.1304 87.2509C75.8724 89.0794 76.2533 91.5307 76.2533 94.343C76.2533 95.3964 76.1837 95.774 75.9254 96.516C75.7862 96.8771 75.667 97.2414 75.5444 97.6025C75.4914 97.7582 75.6836 97.8774 76.3891 98.0861C76.9059 98.2418 77.6644 98.3975 78.0984 98.4472L78.8934 98.5333L78.8072 99.3283C78.7211 100.226 78.8238 101.173 79.0491 101.468C79.1882 101.64 79.7049 101.71 82.1032 101.813C83.9151 101.899 85.8827 102.088 87.433 102.313C88.7779 102.522 90.2287 102.694 90.6594 102.694C91.3848 102.71 91.4544 102.677 91.7624 102.313L91.7657 102.306ZM64.1461 94.2337C64.2157 94.1807 64.3184 93.2499 64.3548 92.1468C64.4939 89.0596 64.6132 88.6091 66.1667 85.1243C67.4421 82.2789 68.1178 79.6222 68.0648 77.7407L68.0317 76.6178L67.5481 77.0849C66.5477 78.0852 67.2367 76.5151 68.4292 75.1172C69.3269 74.0473 69.6382 73.461 69.7741 72.5136C69.8436 72.1327 69.9827 71.9439 70.5691 71.4967C72.7628 69.8395 74.4532 67.6055 75.4517 65.0439C75.6935 64.4212 76.3129 62.3012 76.833 60.3336C77.8002 56.6931 78.317 55.123 78.7841 54.4506C78.9563 54.1922 79.0259 54.1392 78.9927 54.3114C78.7426 55.2366 78.5468 56.1757 78.4064 57.1237C78.2673 57.9684 78.0089 59.6247 77.8367 60.7807C77.5087 63.1459 77.1642 64.663 76.6972 65.8356L76.3858 66.6306L77.2139 68.7705C78.0752 70.9601 78.4727 72.5501 78.5422 74.0837L78.5952 74.945L77.9228 75.0841C77.0353 75.2412 76.2433 75.7363 75.7134 76.4654C75.1271 77.3101 74.7991 78.0024 74.9548 78.1548C75.0244 78.2244 75.8691 78.3801 76.8363 78.4993C78.3369 78.6716 78.9066 78.6716 80.8908 78.5523C81.7521 78.5192 82.6001 78.4331 83.4447 78.3105C83.6336 78.2409 83.8257 77.8633 84.1337 76.8795C84.8426 74.6204 84.9784 73.8254 84.8923 72.2387L84.8227 70.8408L85.1838 70.3737C86.0285 69.3038 86.6844 67.3726 86.9593 65.1102C87.2872 62.3509 86.6844 56.5706 85.5614 51.6018C85.0281 49.2367 84.8029 47.8222 84.8029 46.7887V45.8745L83.9582 45.9606C80.9206 46.2886 77.2471 46.2024 75.0045 45.7354C73.7789 45.4936 70.6916 44.5793 70.0192 44.2845L69.4859 44.0427L69.4163 44.6456C69.3633 44.9735 69.3136 45.3014 69.2441 45.6459C69.1414 46.007 69.1745 46.0931 69.8138 46.7159C70.6088 47.5274 70.8506 47.9415 70.8506 48.4914C70.8506 48.8359 70.6618 49.1141 69.6946 50.1145C69.001 50.8545 68.2316 51.5196 67.399 52.0987L66.2761 52.8572L65.7924 54.5301C64.0666 60.6549 63.7387 66.2265 64.8782 70.2114L65.1531 71.2118L64.5999 71.9008C62.5296 74.5044 61.304 76.4886 61.1152 77.595C61.0048 78.1398 60.8778 78.6811 60.7342 79.2181C60.2871 80.9274 59.9392 83.4283 59.7869 86.1379C59.6807 88.4063 59.5316 90.6725 59.3397 92.9352L59.2536 93.6076L60.1148 93.866C60.5984 94.0217 61.3239 94.1939 61.7379 94.2635C62.5131 94.3827 63.9474 94.3496 64.1693 94.2304L64.1461 94.2337ZM80.8974 84.7434C82.2423 84.6572 83.4679 84.4486 83.7097 84.2432C83.8124 84.1736 83.935 83.8126 83.9681 83.4482L84.0542 82.7923L82.9843 83.0341C82.1396 83.2064 81.2949 83.3091 80.4469 83.3786C78.4097 83.4647 76.3593 83.4117 74.3387 83.2064C73.6662 83.1037 73.6662 83.1037 73.8716 83.9815C74.0439 84.6374 74.0803 84.6705 75.8392 84.7931C77.0119 84.8957 78.6516 84.8792 80.8941 84.7401L80.8974 84.7434ZM79.7745 81.7422C81.5334 81.5866 83.7263 81.2089 84.1569 80.9837C84.2961 80.9141 84.4153 80.6557 84.4683 80.3609L84.624 79.4467L84.7101 79.0161L84.2795 79.1022C82.3649 79.4997 80.914 79.6189 78.0156 79.6189C75.1867 79.6189 74.8587 79.6024 74.1167 79.344C73.8316 79.2238 73.528 79.1532 73.2191 79.1353C73.0998 79.2049 73.0799 80.1887 73.1859 80.8777C73.2555 81.2917 73.3251 81.3613 73.7391 81.4806C75.0509 81.8416 77.2603 81.9277 79.7778 81.7224L79.7745 81.7422ZM47.7559 66.1801C52.1714 64.9048 57.9517 61.1584 62.6787 56.4679C64.2157 54.9309 64.4045 54.7255 64.6099 54.0365L64.8848 53.1554C64.9179 53.0858 64.643 52.9666 64.2819 52.8804C63.3346 52.6552 62.6091 52.1053 62.6091 51.6051C62.6091 51.3103 62.4369 51.0188 61.9367 50.4822C61.1251 49.5679 60.9197 49.1704 60.8336 48.2926L60.7641 47.5837L59.7968 46.8947C59.2436 46.4972 57.3124 45.4273 55.2587 44.3938C53.695 43.6309 52.1643 42.8021 50.6709 41.9094C48.9451 40.7534 47.789 39.3721 47.1331 37.7357C47.0139 37.4077 46.8582 37.1328 46.8052 37.1328C46.6661 37.1328 42.7838 40.8759 41.1276 42.6349C37.0399 46.9477 34.2276 50.6909 32.4488 54.1591C32.0016 55.0203 31.518 56.0406 31.3789 56.4182L31.1205 57.1072L31.4319 58.2632C31.6207 58.886 32.0182 59.9029 32.3296 60.5058C33.4161 62.6457 34.7112 63.9376 36.8511 64.9909C39.1467 66.1304 41.1806 66.5279 44.5792 66.4749C46.4077 66.4584 46.9443 66.4054 47.7526 66.1636L47.7559 66.1801ZM12.9051 51.0486C15.8035 48.4781 19.805 45.6658 24.7075 42.7508C27.9173 40.8362 40.3226 34.6252 46.0334 32.0879C47.0702 31.6208 48.001 31.1902 48.1037 31.1405C48.2064 31.0709 48.5012 30.3289 48.7761 29.5008C49.9852 25.6716 50.5881 24.913 52.7776 24.4128C53.0526 24.3432 53.1221 24.2571 53.1221 23.9822C53.1221 23.482 53.4666 22.3259 53.7614 21.8092C53.9867 21.4117 53.9867 21.3951 53.7946 21.4481C53.6753 21.4812 52.9499 21.6899 52.1913 21.9152C41.6675 24.9527 32.472 28.9874 24.5352 34.0257C16.0652 39.4085 11.1826 45.8612 9.76812 53.5893L9.66543 54.1591L10.7022 53.1421C11.2554 52.5724 12.2558 51.6416 12.9117 51.0718L12.9051 51.0486ZM90.9741 52.5161C91.8187 52.0854 93.1305 50.1012 93.6141 48.5311C93.7532 47.9779 94.0282 47.4612 94.4257 47.0306C95.701 45.6161 96.7544 43.0456 96.7709 41.2867C96.7709 38.5439 95.2174 37.4906 92.9582 38.6632C92.6634 38.8023 92.4249 38.905 92.3885 38.8719C92.2692 38.7526 92.9052 38.1299 93.6837 37.6462C94.7006 36.9738 94.8927 36.5763 94.8927 35.1453C94.9077 33.9886 94.564 32.8557 93.9089 31.9024C93.5976 31.4353 93.4783 31.1272 93.528 30.9351L93.8394 29.7791C94.27 28.2421 94.1143 26.4831 93.4419 25.3635C92.4415 23.6741 91.2159 22.846 89.5066 22.7069L88.5062 22.6373L89.0926 23.2932C90.8349 25.1747 91.6796 27.5365 91.3351 29.5571C91.1629 30.5939 91.0072 30.7993 90.0068 31.1968L89.4205 31.4386L89.4901 32.2336C89.6093 33.5288 89.3874 34.4762 88.5592 36.2186C88.1452 37.0997 87.8338 37.8914 87.8702 37.9775C87.9729 38.2723 89.1124 38.8222 90.0101 39.0474L90.8912 39.2561L90.3381 39.4449C89.6126 39.6702 89.4569 39.9981 89.4569 41.1873C89.4569 42.2738 89.6126 42.7243 90.4043 43.9135C90.7654 44.4302 91.0072 44.9669 91.0436 45.2749C91.1132 45.7586 91.0966 45.7917 90.6991 45.9308C90.2485 46.0573 89.7852 46.1328 89.3178 46.1561C87.6947 46.2587 87.5754 46.3117 86.85 47.0007C86.1941 47.6235 86.1776 47.6566 86.1776 48.3456C86.1776 49.293 86.5386 51.2109 86.7639 51.4693C87.0587 51.7807 88.6951 52.5922 89.3344 52.7115C89.8857 52.8499 90.4686 52.7828 90.9741 52.5227V52.5161ZM67.0777 51.2242C68.1311 50.3961 68.9592 49.5679 69.4229 48.8591C69.7177 48.4284 69.7343 48.3423 69.5952 47.9779C69.3534 47.4247 67.7667 45.9937 66.8856 45.5631C66.2985 45.3001 65.6774 45.1206 65.0405 45.0298L63.954 44.8907L63.2816 44.046C61.8837 42.3202 61.1086 40.9753 60.0022 38.3684C59.0349 36.1589 58.1902 34.8671 56.8454 33.5884C56.2922 33.0717 55.898 32.6411 55.9311 32.6411C56.0007 32.6411 56.6566 32.969 57.4151 33.3665C58.6739 34.0389 58.8296 34.0919 59.3993 34.0058C61.4531 33.764 63.265 31.4022 63.9209 28.0897C64.1097 27.1589 64.4906 26.2082 64.8881 25.6384C64.9047 25.6219 65.6997 26.1386 66.6305 26.8111C68.9956 28.4839 69.5124 28.7422 70.8572 28.7952C71.7384 28.8284 72.2386 28.7621 73.8252 28.3812C77.2073 27.5531 80.8643 27.2251 83.0903 27.5199C84.3491 27.6922 86.161 28.2454 87.5059 28.8814C88.8342 29.5041 89.0926 29.5372 89.5232 29.1563C89.8842 28.8449 89.8842 28.7952 89.8842 27.6392C89.8677 25.9299 89.2449 24.0849 88.2976 22.9818C87.8139 22.4121 86.4525 21.4812 85.1043 20.7724C84.6251 20.5182 84.148 20.2598 83.6733 19.9972C83.034 19.6163 82.3119 19.6693 80.3442 20.1861C78.0652 20.7724 77.4624 20.7724 74.8587 20.0999C72.6493 19.5467 72.5135 19.5302 70.3372 19.8747C69.1811 20.0469 66.2827 19.9442 65.3154 19.6859C64.8318 19.5467 64.3482 19.4109 63.8844 19.2387C63.0397 18.9107 61.5723 18.8577 60.244 19.0996C57.6039 19.5666 55.6032 20.9976 54.8777 22.9454C54.4968 23.9292 54.5498 24.3962 55.05 24.7043C55.845 25.2045 56.8951 26.5692 56.8951 27.1026C56.8951 27.1357 56.6367 26.9137 56.3419 26.6024C55.5999 25.8272 54.9274 25.4794 54.1324 25.4794C53.6181 25.4937 53.1179 25.6514 52.6883 25.9346C52.2587 26.2179 51.9168 26.6155 51.7011 27.0827C51.4689 27.6922 51.2731 28.3149 51.1147 28.9476C50.6311 30.7066 50.2005 31.6407 49.2862 32.8829C48.4747 34.0058 48.3554 34.506 48.6469 35.7647C49.3724 38.9381 50.6311 40.2167 55.8914 43.2013C58.6507 44.7714 60.0651 45.6526 61.1019 46.4277C61.8969 47.014 61.9135 47.0504 61.8439 47.4976C61.6882 48.5344 62.3441 49.6541 63.6393 50.5683C63.9672 50.7936 64.1726 51.0354 64.1726 51.2076C64.1726 51.519 65.0537 51.9496 65.6897 51.9496C66.0508 51.9496 66.3291 51.7939 67.0711 51.2242H67.0777ZM88.3506 45.4074C90.3513 45.477 90.454 45.3213 89.3874 44.0791C88.2644 42.7839 87.9564 41.7339 88.3704 40.5778L88.5427 40.1306L87.8338 39.7861C87.592 39.6669 87.3502 39.5443 87.1084 39.4582C86.9891 39.9252 86.8666 40.3724 86.7639 40.8395C86.5055 41.8929 86.1941 44.6191 86.1776 45.7751C86.1776 45.8778 86.3498 45.8447 86.6446 45.6559C87.0587 45.4141 87.2674 45.3809 88.3539 45.4141L88.3506 45.4074ZM81.6394 45.3047C82.8485 45.2352 84.0907 45.1491 84.4186 45.0961L85.0215 45.0099L85.0911 43.0257C85.1937 40.1969 85.6078 38.5241 86.8334 35.8476C87.6947 33.9495 88.0756 32.2932 87.8868 31.0511C87.8172 30.5177 87.7841 30.4813 87.0587 30.1699C85.7303 29.6425 84.347 29.2658 82.9346 29.047C81.5732 28.8582 77.5684 28.9609 76.0678 29.2557C75.4451 29.3584 74.3089 29.6002 73.5503 29.789C71.6688 30.2196 70.6684 30.1699 69.2374 29.5472C67.823 28.9244 66.9253 28.358 66.0806 27.563C65.4082 26.9402 65.3386 26.9071 65.1664 27.1158C65.0272 27.2715 64.9577 27.7386 64.908 28.7389C64.855 30.2759 64.6132 31.0842 63.9407 32.1707C63.7913 32.3942 63.6638 32.6316 63.5598 32.8796C63.5598 32.9326 64.0766 33.5354 64.7159 34.1913C66.9253 36.4869 68.0118 37.0732 69.7542 36.9506C70.3239 36.8976 70.7214 36.9175 70.7214 36.9837C70.7214 37.1229 69.5985 38.0007 69.1347 38.2425C68.9095 38.3617 68.8598 38.4843 68.8929 38.7427L69.1679 40.5546C69.3236 41.5914 69.4428 42.0717 69.5985 42.2109C70.0126 42.5554 72.1524 43.6617 73.4973 44.2116C75.2562 44.9205 76.2235 45.1789 77.5684 45.2981C79.2246 45.4372 79.2577 45.4372 81.6394 45.2981V45.3047ZM67.3725 43.4067C67.4056 43.3537 67.2864 42.3533 67.0611 41.1972C66.7862 39.6271 66.6305 39.0574 66.4582 38.9017C66.339 38.799 65.6997 38.3485 65.0604 37.8847C64.2204 37.2807 63.4245 36.6176 62.6787 35.9006L61.4895 34.7279L60.8502 35.0559L60.1777 35.4169C60.2343 35.6864 60.3268 35.9471 60.4527 36.1921C60.6415 36.6061 61.0224 37.6231 61.2974 38.4512C62.0228 40.6076 62.5926 41.6444 64.0236 43.5226L64.5569 44.2315L65.5738 44.3872C66.1436 44.4733 66.7133 44.5959 66.869 44.6456C67.1108 44.7482 67.1439 44.6986 67.2135 44.1454C67.2466 43.9036 67.2996 43.6452 67.3692 43.4034L67.3725 43.4067ZM89.2317 21.945C90.1128 21.8589 90.2685 21.7363 89.8876 21.3421C89.6457 21.1003 89.0926 21.0837 88.6454 21.2891C88.3506 21.4282 88.2843 21.3918 87.8172 20.8916C87.3336 20.3583 87.3005 20.3384 86.6943 20.408C86.1411 20.4776 86.055 20.461 85.9854 20.2357C85.77 19.8657 85.5022 19.5288 85.1904 19.2354C84.7986 18.7901 84.3087 18.442 83.7594 18.2184C82.6895 17.8044 82.0866 17.8574 81.0664 18.4271C78.1149 20.0304 78.2375 20.0138 75.3887 19.2884C72.7321 18.6159 70.7479 17.9269 70.1086 17.493C69.5753 17.1319 68.4358 16.7344 67.4851 16.6119C66.7762 16.5092 66.3291 16.6649 65.6566 17.2147L65.2956 17.5096L65.6235 18.0793C66.0707 18.8743 66.021 18.924 65.3486 18.3377C64.6231 17.7348 63.7619 17.3207 63.2087 17.3009C62.8112 17.3009 61.6386 17.8176 61.4994 18.0429C61.4464 18.1124 61.8108 18.1986 62.2944 18.2317C62.7946 18.2847 63.4836 18.4569 63.9507 18.6457C65.1597 19.1625 65.7792 19.3347 66.8822 19.4407C68.0913 19.56 70.2809 19.4242 70.5392 19.2155C70.6784 19.0962 71.056 19.0764 71.851 19.1459C72.9044 19.2155 73.335 19.3182 75.8359 19.9906C77.2868 20.3881 78.3037 20.3517 80.0296 19.8879C80.8246 19.6627 81.8249 19.4407 82.239 19.3877C82.9479 19.3182 83.0837 19.3546 84.1901 19.8548C85.949 20.6498 86.8831 21.15 87.3999 21.6137C87.9166 22.0609 87.9862 22.0609 89.2284 21.9582L89.2317 21.945ZM79.3969 18.9273L80.4502 18.3741L80.4171 17.3042C80.4006 16.5622 80.3641 15.8367 80.331 15.1146L80.2449 14.0116L79.1915 14.8231C78.5687 15.3067 77.9659 15.6678 77.7075 15.7208C76.9489 15.8599 73.2058 15.7208 72.858 15.532C72.3946 15.1897 71.9613 14.8085 71.5628 14.3925L70.5956 13.4087L70.579 13.995C70.579 14.3064 70.5459 14.8397 70.4763 15.1676C70.3902 15.7904 70.3902 15.8069 71.0626 16.6516C71.4237 17.1187 71.7185 17.5327 71.7185 17.5824C71.7185 17.9104 76.7038 19.4639 77.8267 19.4805C78.1878 19.4805 78.6383 19.3248 79.3969 18.9273ZM77.3961 15.0086C78.6383 14.7668 79.2412 13.8691 79.7082 11.5934C80.1919 9.14218 80.4337 5.29637 80.2084 3.65668C79.9997 2.17268 78.3435 1.5168 75.1867 1.61949C73.2191 1.68905 72.4075 1.87787 71.7351 2.44762C71.321 2.79212 71.321 2.82855 71.1322 4.46493C70.7877 7.60518 71.3044 12.0737 72.2021 13.7466C72.6327 14.5581 73.0137 14.8496 73.8054 14.9887C74.7031 15.1444 76.6177 15.1444 77.3928 15.0053L77.3961 15.0086Z" fill="black"/>
</svg>
