<svg width="118" height="118" viewBox="0 0 118 118" fill="none" xmlns="http://www.w3.org/2000/svg">
<path d="M64.408 17.208L67.8497 22.6163L71.2913 17.208V24.583H76.208V9.83301H71.2913L67.8497 15.2413L64.8997 9.83301H59.4913V24.583H64.408V17.208ZM90.4663 24.583V19.6663H83.583V9.83301H78.6663V24.583H90.4663ZM48.183 24.583H53.0997V14.7497H57.5247V9.83301H43.758V14.7497H48.183V24.583ZM32.4497 19.6663H36.8747V24.583H41.7913V9.83301H36.8747V14.7497H32.4497V9.83301H27.533V24.583H32.4497V19.6663ZM24.583 29.4997L30.483 100.3L58.9997 108.166L87.5163 100.3L93.4163 29.4997H24.583ZM80.1413 52.1163H46.708L47.6913 60.9663H79.158L76.6997 88.008L58.9997 92.9247L41.2997 88.008L39.8247 73.7497H48.6747L49.1663 81.1247L58.9997 83.583L68.833 81.1247L69.8163 69.8163H39.333L36.8747 43.758H81.1247L80.1413 52.1163Z" fill="black"/>
</svg>
