<svg width="116" height="116" viewBox="0 0 116 116" fill="none" xmlns="http://www.w3.org/2000/svg">
<path d="M61.625 54.375C61.625 51.4908 62.7708 48.7247 64.8102 46.6852C66.8497 44.6458 69.6158 43.5 72.5 43.5H83.375C84.3364 43.5 85.2584 43.8819 85.9383 44.5617C86.6181 45.2416 87 46.1636 87 47.125C87 48.0864 86.6181 49.0084 85.9383 49.6883C85.2584 50.3681 84.3364 50.75 83.375 50.75H72.5C71.5386 50.75 70.6166 51.1319 69.9367 51.8117C69.2569 52.4916 68.875 53.4136 68.875 54.375V58C68.875 58.9614 69.2569 59.8834 69.9367 60.5633C70.6166 61.2431 71.5386 61.625 72.5 61.625H76.125C79.0092 61.625 81.7753 62.7708 83.8148 64.8102C85.8542 66.8497 87 69.6158 87 72.5V76.125C87 79.0092 85.8542 81.7753 83.8148 83.8148C81.7753 85.8542 79.0092 87 76.125 87H65.25C64.2886 87 63.3666 86.6181 62.6867 85.9383C62.0069 85.2584 61.625 84.3364 61.625 83.375C61.625 82.4136 62.0069 81.4916 62.6867 80.8117C63.3666 80.1319 64.2886 79.75 65.25 79.75H76.125C77.0864 79.75 78.0084 79.3681 78.6883 78.6883C79.3681 78.0084 79.75 77.0864 79.75 76.125V72.5C79.75 71.5386 79.3681 70.6166 78.6883 69.9367C78.0084 69.2569 77.0864 68.875 76.125 68.875H72.5C69.6158 68.875 66.8497 67.7292 64.8102 65.6898C62.7708 63.6503 61.625 60.8842 61.625 58V54.375ZM58 47.125C58 46.1636 57.6181 45.2416 56.9383 44.5617C56.2584 43.8819 55.3364 43.5 54.375 43.5C53.4136 43.5 52.4916 43.8819 51.8117 44.5617C51.1319 45.2416 50.75 46.1636 50.75 47.125V76.125C50.75 77.0864 50.3681 78.0084 49.6883 78.6883C49.0084 79.3681 48.0864 79.75 47.125 79.75H39.875C38.9136 79.75 37.9916 80.1319 37.3117 80.8117C36.6319 81.4916 36.25 82.4136 36.25 83.375C36.25 84.3364 36.6319 85.2584 37.3117 85.9383C37.9916 86.6181 38.9136 87 39.875 87H47.125C50.0092 87 52.7753 85.8542 54.8148 83.8148C56.8542 81.7753 58 79.0092 58 76.125V47.125ZM14.5 32.625C14.5 27.818 16.4096 23.2078 19.8087 19.8087C23.2078 16.4096 27.818 14.5 32.625 14.5H83.375C88.182 14.5 92.7922 16.4096 96.1913 19.8087C99.5904 23.2078 101.5 27.818 101.5 32.625V83.375C101.5 88.182 99.5904 92.7922 96.1913 96.1913C92.7922 99.5904 88.182 101.5 83.375 101.5H32.625C27.818 101.5 23.2078 99.5904 19.8087 96.1913C16.4096 92.7922 14.5 88.182 14.5 83.375V32.625ZM32.625 21.75C29.7408 21.75 26.9747 22.8958 24.9352 24.9352C22.8958 26.9747 21.75 29.7408 21.75 32.625V83.375C21.75 86.2592 22.8958 89.0253 24.9352 91.0648C26.9747 93.1042 29.7408 94.25 32.625 94.25H83.375C86.2592 94.25 89.0253 93.1042 91.0648 91.0648C93.1042 89.0253 94.25 86.2592 94.25 83.375V32.625C94.25 29.7408 93.1042 26.9747 91.0648 24.9352C89.0253 22.8958 86.2592 21.75 83.375 21.75H32.625Z" fill="black"/>
</svg>
