<svg width="92" height="92" viewBox="0 0 92 92" fill="none" xmlns="http://www.w3.org/2000/svg">
<g clip-path="url(#clip0_723_39)">
<path d="M62.8907 21.7583C62.4422 21.7583 62.1432 21.8186 61.8413 21.8934V21.9394H61.8873C62.0972 22.3275 62.4422 22.6294 62.7096 22.9888C62.9194 23.3941 63.0977 23.811 63.2932 24.2164L63.3536 24.156C63.7129 23.9001 63.8941 23.4976 63.8941 22.8824C63.7446 22.7013 63.7129 22.5086 63.5807 22.3419C63.4312 22.086 63.1006 21.9538 62.8907 21.7583ZM22.1174 72.3381H18.5697C18.4622 66.6912 18.1179 61.0512 17.5376 55.4331H17.5088L12.1038 72.3381H9.39268L4.0308 55.4331H3.9848C3.56812 61.0595 3.31884 66.697 3.2373 72.3381H0.00292969C0.178064 65.2489 0.70291 58.1726 1.57555 51.135H5.97718L11.0976 66.7089H11.1263L16.2927 51.135H20.4844C21.4131 58.863 21.9679 65.9298 22.1318 72.3381H22.1174ZM37.5102 56.6924C36.0727 64.5383 34.1551 70.2451 31.8062 73.7929C29.9489 76.5328 27.9278 77.9099 25.7256 77.9099C25.1419 77.9099 24.4232 77.7288 23.5549 77.3694V75.4834C23.9891 75.5438 24.4836 75.5869 25.0384 75.5869C26.0706 75.5869 26.8957 75.2879 27.5253 74.733C28.2728 74.043 28.6494 73.2668 28.6494 72.4129C28.6494 71.8149 28.3648 70.616 27.7668 68.7904L23.8884 56.6924H27.3787L30.1646 65.7371C30.7942 67.8043 31.0644 69.2274 30.9437 70.0496C32.4847 65.9758 33.5484 61.5138 34.1493 56.6924H37.5102ZM84.7666 72.3381H74.6753V51.135H78.0736V69.7334H84.7666V72.3381ZM72.0389 72.8499L68.1462 70.9323C68.4912 70.6476 68.8189 70.3343 69.1208 69.9749C70.7826 68.0429 71.6077 65.1535 71.6077 61.3499C71.6077 54.3263 68.8534 50.8245 63.3421 50.8245C60.6453 50.8245 58.5351 51.7071 57.0228 53.4896C55.3754 55.436 54.5359 58.311 54.5359 62.1003C54.5359 65.8291 55.2691 68.5546 56.7382 70.3055C58.0866 71.8638 60.1077 72.6573 62.8188 72.6573C63.8222 72.6573 64.7508 72.5365 65.5903 72.2835L70.6676 75.2476L72.0591 72.8528L72.0389 72.8499ZM59.4177 68.086C58.5494 66.7089 58.1297 64.4923 58.1297 61.4361C58.1297 56.0915 59.7483 53.4264 62.9971 53.4264C64.6904 53.4264 65.9468 54.0704 66.7403 55.344C67.5942 56.7355 68.0283 58.9234 68.0283 61.9479C68.0283 67.3241 66.3953 70.0353 63.1609 70.0353C61.4532 70.0353 60.2112 69.3913 59.4033 68.1176L59.4177 68.086ZM53.0668 66.4703C53.0668 68.2671 52.4084 69.7506 51.0744 70.8863C49.7577 72.0391 48.0039 72.6228 45.7729 72.6228C43.6914 72.6228 41.6991 71.9644 39.7383 70.6448L40.6526 68.8191C42.3287 69.6586 43.8409 70.0784 45.2209 70.0784C46.4946 70.0784 47.4979 69.7938 48.2167 69.2389C48.9354 68.6696 49.3696 67.8761 49.3696 66.8728C49.3696 65.6135 48.4869 64.5354 46.8827 63.6384C45.3992 62.8161 42.4207 61.1228 42.4207 61.1228C40.8021 59.9411 40.0086 58.6819 40.0086 56.6004C40.0086 54.8783 40.6066 53.5011 41.8054 52.4518C43.0187 51.3736 44.5597 50.8504 46.4773 50.8504C48.3851 50.8338 50.2554 51.3809 51.8536 52.423L51.0313 54.2486C49.7467 53.683 48.361 53.3827 46.9574 53.366C45.8649 53.366 45.0254 53.6363 44.4418 54.1595C43.8582 54.6828 43.4988 55.3411 43.4988 56.1663C43.4988 57.4255 44.3987 58.5036 46.0432 59.4294C47.5554 60.2516 50.5943 61.991 50.5943 61.991C52.2561 63.1583 53.0812 64.4175 53.0812 66.4674L53.0668 66.4703ZM89.0216 44.0251C86.9688 43.9791 85.3818 44.189 84.0507 44.7583C83.6769 44.9078 83.0617 44.9078 83.0013 45.3879C83.2112 45.5978 83.2399 45.9284 83.4211 46.2101C83.7344 46.719 84.2606 47.409 84.7551 47.7684C85.2956 48.1881 85.8332 48.6079 86.3881 48.9673C87.3914 49.5825 88.5156 49.9419 89.5017 50.5543C90.0566 50.9136 90.6258 51.3765 91.1778 51.7531C91.4624 51.9486 91.6407 52.2936 92.0001 52.4115V52.3368C91.8189 52.1125 91.7758 51.7819 91.5947 51.5145C91.3388 51.2586 91.0858 51.0344 90.8299 50.7814C90.0802 49.7859 89.1812 48.9122 88.1648 48.191C87.3426 47.6361 85.5457 46.857 85.2151 45.914L85.1691 45.8537C85.7239 45.8077 86.3823 45.5978 86.9199 45.4483C87.7882 45.224 88.5961 45.2671 89.4959 45.0429C89.9087 44.9358 90.3181 44.8159 90.7236 44.6835V44.4593C90.2607 43.9964 89.9157 43.3668 89.4356 42.9326C88.1125 41.775 86.7004 40.7233 85.2122 39.7874C84.4043 39.2641 83.3866 38.9335 82.5327 38.4994C82.2337 38.3499 81.7104 38.2751 81.5437 38.0193C81.0808 37.45 80.8106 36.7169 80.4799 36.0413C79.7279 34.5796 79.0288 33.0913 78.3841 31.5793C77.9212 30.5759 77.6509 29.5869 77.0817 28.6583C74.4453 24.2998 71.5703 21.6663 67.1687 19.0759C66.2257 18.5354 65.0872 18.3111 63.8883 18.0265C63.2443 17.9978 62.6147 17.9518 61.9707 17.923C61.5509 17.7419 61.1484 17.2646 60.7891 17.0231C59.3228 16.0945 55.5479 14.1021 54.4842 16.7385C53.7942 18.4146 55.5019 20.0476 56.1028 20.8871C56.5369 21.4851 57.0918 22.1464 57.4052 22.8048C57.5863 23.2533 57.6294 23.719 57.8106 24.1819C58.2159 25.306 58.6041 26.5624 59.1446 27.6118C59.4292 28.1523 59.7282 28.7186 60.0876 29.1988C60.2974 29.4834 60.6568 29.6041 60.7316 30.067C60.3722 30.5903 60.3434 31.355 60.1479 31.9846C59.2193 34.8884 59.5787 38.4678 60.8811 40.6096C61.3008 41.2536 62.2726 42.6624 63.5778 42.1219C64.7307 41.659 64.4777 40.2043 64.8054 38.9163C64.8802 38.6029 64.8342 38.4074 64.9866 38.1975V38.2579C65.3603 38.9766 65.7197 39.6666 66.0503 40.3854C66.8294 41.6446 68.2209 42.947 69.3738 43.8153C69.9891 44.2781 70.4663 45.0745 71.2311 45.3563V45.2815H71.1707C71.0068 45.0573 70.7969 44.9509 70.5871 44.7726C70.1015 44.2917 69.6509 43.7767 69.2387 43.2316C68.1749 41.7941 67.2176 40.2071 66.3781 38.5741C65.9736 37.7673 65.6043 36.9433 65.2712 36.1045C65.1217 35.8055 65.1217 35.3398 64.8658 35.1903C64.4777 35.7451 63.9084 36.2224 63.6382 36.9268C63.1437 38.0193 63.0977 39.382 62.9051 40.7908C62.8159 40.8195 62.8591 40.7908 62.8159 40.8511C61.9937 40.6413 61.7091 39.8018 61.4072 39.083C60.6281 37.2574 60.5073 34.3364 61.1686 32.2405C61.3497 31.7 62.1116 30.0095 61.8126 29.5006C61.6487 29.0061 61.1398 28.7215 60.8696 28.3334C60.5246 27.8533 60.1796 27.2409 59.9409 26.7004C59.3257 25.2629 59.0267 23.6759 58.3539 22.2384C58.0549 21.58 57.5144 20.89 57.0803 20.2776C56.5858 19.5876 56.0482 19.096 55.6716 18.2853C55.5364 18.0006 55.3582 17.5378 55.5681 17.2359C55.6141 17.026 55.7176 16.9513 55.9274 16.8909C56.2581 16.6063 57.2154 16.9656 57.5461 17.1295C58.4891 17.5033 59.2826 17.8626 60.0761 18.4031C60.4354 18.659 60.8236 19.1363 61.2893 19.2714H61.8298C62.6521 19.4525 63.5663 19.3174 64.3311 19.556C65.6938 19.9901 66.9214 20.6198 68.0283 21.3069C71.4133 23.4798 74.166 26.5062 76.0093 30.0814C76.3227 30.665 76.4578 31.2055 76.7424 31.8179C77.2657 33.0915 77.9413 34.3623 78.4789 35.5755C79.0166 36.7888 79.5283 38.0164 80.3046 39.0198C80.6927 39.5603 82.2222 39.842 82.9237 40.1123C83.4326 40.3509 84.2261 40.5608 84.6746 40.831C85.5572 41.3715 86.4254 41.9839 87.2506 42.5819C87.6703 42.8665 88.9439 43.5105 89.0187 44.0194L89.0216 44.0251Z" fill="black"/>
</g>
<defs>
<clipPath id="clip0_723_39">
<rect width="92" height="92" fill="white"/>
</clipPath>
</defs>
</svg>
