<svg width="102" height="102" viewBox="0 0 102 102" fill="none" xmlns="http://www.w3.org/2000/svg">
<path d="M67.8937 19.125C67.6401 19.125 67.3969 19.2257 67.2176 19.4051C67.0382 19.5844 66.9375 19.8276 66.9375 20.0813V37.6029L62.9659 35.2856C62.7207 35.1406 62.4411 35.0641 62.1562 35.0641C61.8714 35.0641 61.5918 35.1406 61.3466 35.2856L51.8033 40.851C51.5593 40.9919 51.3566 41.1944 51.2156 41.4384C51.0746 41.6823 51.0003 41.959 51 42.2407V53.3842C51 53.958 51.306 54.4871 51.8033 54.774L61.3466 60.3394C61.5918 60.4844 61.8714 60.5609 62.1562 60.5609C62.4411 60.5609 62.7207 60.4844 62.9659 60.3394L72.5092 54.774C72.7532 54.6331 72.9559 54.4306 73.0969 54.1866C73.2379 53.9427 73.3122 53.666 73.3125 53.3842V23.0456C73.3117 22.7676 73.2384 22.4947 73.0997 22.2537C72.9611 22.0128 72.7619 21.8122 72.522 21.6718L68.3687 19.2557C68.2257 19.1712 68.063 19.1261 67.8969 19.125H67.8937ZM36.6562 35.0689C36.372 35.0685 36.0927 35.1433 35.8466 35.2856L26.3032 40.851C26.0593 40.9919 25.8566 41.1944 25.7156 41.4384C25.5746 41.6823 25.5003 41.959 25.5 42.2407V53.3842C25.5 53.958 25.806 54.4871 26.3032 54.774L35.8466 60.3394C36.3471 60.6263 36.9622 60.6263 37.4659 60.3394L47.0093 54.774C47.2532 54.6331 47.4559 54.4306 47.5969 54.1866C47.7379 53.9427 47.8122 53.666 47.8125 53.3842V42.2407C47.8129 41.9589 47.7388 41.6819 47.5977 41.4379C47.4567 41.1938 47.2537 40.9914 47.0093 40.851L37.4659 35.2856C37.2198 35.1433 36.9405 35.0685 36.6562 35.0689ZM87.6562 35.0689C87.3719 35.0674 87.0923 35.1423 86.8466 35.2856L77.3033 40.851C77.0593 40.9919 76.8566 41.1944 76.7156 41.4384C76.5746 41.6823 76.5003 41.959 76.5 42.2407V53.3842C76.5 53.958 76.806 54.4871 77.3033 54.774L86.5598 60.3681C86.8044 60.5165 87.0846 60.5961 87.3708 60.5983C87.657 60.6006 87.9384 60.5254 88.1854 60.3808L92.7371 57.7352C92.8442 57.6721 92.933 57.5822 92.9946 57.4743C93.0563 57.3664 93.0887 57.2443 93.0887 57.12C93.0887 56.9957 93.0563 56.8736 92.9946 56.7657C92.933 56.6578 92.8442 56.5679 92.7371 56.5048L82.875 50.694V44.9756L87.6562 42.1929L92.4375 44.9756V48.96C92.4375 49.4923 92.8837 49.5752 93.1834 49.3967C94.7947 48.4559 96.4076 47.5177 98.022 46.5821C98.2622 46.442 98.4615 46.2415 98.6001 46.0005C98.7388 45.7595 98.812 45.4864 98.8125 45.2083V42.2439C98.8129 41.9621 98.7388 41.6851 98.5977 41.4411C98.4567 41.197 98.2537 40.9946 98.0092 40.8542L88.4659 35.2888C88.2201 35.1459 87.9406 35.0711 87.6562 35.0721V35.0689ZM11.1562 35.0752C10.8719 35.0738 10.5923 35.1487 10.3466 35.292L0.80325 40.851C0.55897 40.9932 0.356241 41.1969 0.215295 41.4419C0.0743489 41.6868 0.000114532 41.9645 0 42.2471V56.4729C0 57.1678 0.75225 57.5981 1.3515 57.2507L5.5845 54.7867C5.8249 54.6461 6.02434 54.445 6.16301 54.2035C6.30168 53.9619 6.37476 53.6883 6.375 53.4098V44.9852L11.1562 42.1961L15.9375 44.9852V53.4098C15.938 53.6878 16.0112 53.9609 16.1499 54.2019C16.2885 54.4429 16.4878 54.6434 16.728 54.7836L20.961 57.2507C21.0977 57.3303 21.253 57.3725 21.4111 57.373C21.5693 57.3734 21.7249 57.3321 21.862 57.2532C21.9991 57.1743 22.1129 57.0606 22.192 56.9236C22.2712 56.7866 22.3127 56.6311 22.3125 56.4729V42.2471C22.3124 41.9645 22.2382 41.6868 22.0972 41.4419C21.9563 41.1969 21.7535 40.9932 21.5093 40.851L11.9659 35.292C11.7202 35.1487 11.4406 35.0738 11.1562 35.0752ZM62.1562 42.1898L66.9375 44.9788V50.6462L62.1562 53.4352L57.375 50.6462V44.9756L62.1562 42.1866V42.1898ZM87.6562 44.6377L84.9246 46.2315V49.4126L87.6562 51L90.3879 49.4126V46.2315L87.6562 44.6377ZM49.1066 57.3686C48.7755 57.3668 48.4495 57.4502 48.1599 57.6109L39.1967 62.7938C38.9082 62.9573 38.6685 63.1946 38.5021 63.4814C38.3358 63.7682 38.2487 64.0942 38.25 64.4257V74.7724C38.25 75.4386 38.6229 76.0665 39.1967 76.4044L41.5554 77.7495C42.687 78.3073 43.1046 78.3073 43.6178 78.3073C45.3071 78.3073 46.2697 77.2969 46.2697 75.5119V65.2896C46.2706 65.2547 46.2645 65.22 46.2517 65.1876C46.239 65.1551 46.2198 65.1256 46.1955 65.1006C46.1711 65.0757 46.142 65.0558 46.1099 65.0423C46.0778 65.0288 46.0432 65.0218 46.0084 65.0218H44.8736C44.8026 65.0218 44.7345 65.05 44.6843 65.1002C44.6341 65.1504 44.6059 65.2186 44.6059 65.2896V75.5119C44.6059 76.2864 43.7867 77.0833 42.4511 76.4171L39.9968 75.0019C39.9567 74.9767 39.9235 74.9419 39.9002 74.9008C39.8768 74.8596 39.864 74.8133 39.8629 74.766V64.4194C39.8629 64.3269 39.9075 64.2186 39.9999 64.1707L48.9632 59.0038C49.0061 58.9801 49.0544 58.9676 49.1034 58.9676C49.1525 58.9676 49.2007 58.9801 49.2437 59.0038L58.2165 64.1676C58.3089 64.2186 58.3536 64.311 58.3536 64.4194V74.766C58.3533 74.8156 58.3407 74.8644 58.3167 74.9078C58.2928 74.9512 58.2583 74.988 58.2165 75.0146L49.2437 80.2007C49.2007 80.2244 49.1525 80.2368 49.1034 80.2368C49.0544 80.2368 49.0061 80.2244 48.9632 80.2007L46.6746 78.8364C46.6108 78.8046 46.5152 78.7886 46.4546 78.8205C46.0352 79.0894 45.5803 79.2986 45.1031 79.4421C44.9469 79.4899 44.7366 79.5855 45.186 79.8341L48.1599 81.6032C48.4507 81.7614 48.7756 81.8467 49.1066 81.8518C49.4364 81.8551 49.7604 81.7645 50.0406 81.5904L59.007 76.4044C59.2954 76.2409 59.5352 76.0035 59.7015 75.7167C59.8679 75.4299 59.9549 75.1039 59.9537 74.7724V64.4257C59.9495 64.0953 59.8602 63.7715 59.6944 63.4856C59.5285 63.1997 59.2918 62.9614 59.007 62.7938L50.0406 57.6141C49.756 57.4526 49.4338 57.3691 49.1066 57.3718V57.3686ZM63.0902 62.1435C62.8641 62.1439 62.6404 62.1889 62.4317 62.2757C62.2231 62.3626 62.0336 62.4898 61.874 62.6499C61.5518 62.9733 61.3713 63.4114 61.3721 63.8679C61.373 64.3244 61.5551 64.7619 61.8785 65.0841C62.2019 65.4063 62.6401 65.5868 63.0966 65.586C63.5531 65.5852 63.9905 65.403 64.3127 65.0796C64.6349 64.7562 64.8155 64.3181 64.8146 63.8616C64.8138 63.4051 64.6316 62.9676 64.3082 62.6454C63.9848 62.3232 63.5467 62.1427 63.0902 62.1435ZM63.0711 62.4176C63.8807 62.4176 64.5373 63.0551 64.5373 63.8616C64.5316 64.2486 64.3752 64.6183 64.1015 64.892C63.8278 65.1657 63.4581 65.3221 63.0711 65.3278C62.6861 65.3236 62.3186 65.1669 62.0491 64.892C61.7796 64.6171 61.6301 64.2465 61.6335 63.8616C61.6322 63.6721 61.6685 63.4843 61.7402 63.309C61.8119 63.1336 61.9177 62.9742 62.0513 62.84C62.185 62.7057 62.3439 62.5993 62.519 62.5268C62.694 62.4543 62.8816 62.4172 63.0711 62.4176ZM62.4431 62.8862V64.821H62.8097V64.0496H63.1539C63.2942 64.0496 63.3261 64.107 63.3579 64.2154C63.3579 64.2313 63.4153 64.7349 63.4312 64.8274H63.8297C63.7791 64.6594 63.7481 64.4861 63.7373 64.311C63.6926 64.0624 63.6799 63.8902 63.4153 63.8743C63.5556 63.8265 63.7882 63.7532 63.7882 63.3962C63.7882 62.883 63.342 62.8862 63.1093 62.8862H62.4431ZM62.8097 63.1954H63.1221C63.2177 63.1954 63.4026 63.1954 63.4026 63.4568C63.4026 63.5651 63.3548 63.7436 63.1029 63.7373H62.8097V63.1954ZM51.51 64.7764C48.9504 64.7764 47.43 65.8697 47.43 67.6674C47.43 69.6373 48.9536 70.1633 51.4048 70.4087C54.3373 70.7051 54.5668 71.1259 54.5668 71.6996C54.5668 72.7069 53.7572 73.1244 51.8638 73.1244C49.4891 73.1244 48.9696 72.5379 48.7974 71.3586C48.7815 71.2311 48.6699 71.1386 48.5297 71.1386H47.3631C47.3282 71.1386 47.2937 71.1456 47.2615 71.1591C47.2294 71.1726 47.2003 71.1925 47.176 71.2174C47.1516 71.2424 47.1325 71.2719 47.1197 71.3044C47.107 71.3368 47.1008 71.3715 47.1017 71.4064C47.1017 72.9109 47.9241 74.7118 51.8479 74.7118C54.7262 74.7118 56.355 73.5962 56.355 71.6391C56.355 69.7011 55.0481 69.1847 52.2877 68.8117C49.4955 68.4388 49.2182 68.2508 49.2182 67.5973C49.2182 67.0554 49.4477 66.3446 51.5132 66.3446C53.3556 66.3446 54.0441 66.7494 54.3246 67.9894C54.3564 68.1169 54.4425 68.1902 54.5668 68.1902H55.7302C55.8067 68.1902 55.8737 68.1583 55.9183 68.1137C55.9661 68.0531 55.9948 67.9926 55.9821 67.9161C55.7972 65.7741 54.3819 64.7764 51.51 64.7764Z" fill="black"/>
</svg>
