<svg width="101" height="90" viewBox="0 0 101 90" fill="none" xmlns="http://www.w3.org/2000/svg">
<g clip-path="url(#clip0_723_10)">
<path d="M83.0357 29.141C81.961 28.772 80.8772 28.4302 79.7853 28.1158C79.9687 27.3658 80.1375 26.6249 80.2874 25.897C82.7481 13.944 81.1395 4.3144 75.645 1.14388C70.3769 -1.89559 61.7615 1.27375 53.0604 8.85151C52.2029 9.59967 51.3644 10.3694 50.5457 11.1599C49.9976 10.6342 49.4399 10.1188 48.8728 9.61375C39.7536 1.51138 30.613 -1.90349 25.1245 1.27612C19.8612 4.32506 18.3026 13.3776 20.5179 24.7057C20.7383 25.8277 20.9872 26.9438 21.2643 28.0531C19.9704 28.421 18.7219 28.8126 17.5271 29.2294C6.83558 32.9597 0.0078125 38.8053 0.0078125 44.8689C0.0078125 51.1314 7.33773 57.4128 18.4734 61.2216C19.3762 61.5292 20.2865 61.8141 21.2035 62.0762C20.9057 63.271 20.6413 64.4738 20.4106 65.6833C18.2987 76.8149 19.9479 85.6535 25.1971 88.6831C30.6186 91.8118 39.7181 88.5962 48.5781 80.8456C49.2965 80.2155 49.9992 79.5675 50.6853 78.9023C51.5719 79.7583 52.4821 80.5894 53.415 81.3947C61.9977 88.7849 70.474 91.7691 75.718 88.7312C81.1344 85.5935 82.8948 76.0985 80.6093 64.5465C80.4293 63.6415 80.2274 62.741 80.0038 61.8457C80.6428 61.6562 81.27 61.4612 81.8815 61.2583C93.4582 57.4203 100.99 51.2151 100.99 44.8689C100.99 38.7832 93.9422 32.8981 83.0357 29.141ZM80.5249 57.161C79.9727 57.3437 79.4062 57.5202 78.8287 57.6919C77.5506 53.6431 75.8261 49.3381 73.7153 44.8898C75.7294 40.5477 77.3877 36.2976 78.6299 32.2752C79.663 32.5744 80.6653 32.8898 81.6318 33.2226C90.9766 36.442 96.6766 41.2014 96.6766 44.8689C96.6766 48.7752 90.5206 53.8464 80.5249 57.161ZM76.3775 65.3849C77.3881 70.4928 77.5321 75.1112 76.8627 78.7219C76.2615 81.9662 75.0521 84.129 73.5563 84.9954C70.3742 86.8389 63.5685 84.4428 56.2287 78.1223C55.361 77.3736 54.5143 76.6009 53.6896 75.8052C56.5352 72.6911 59.3789 69.071 62.1543 65.0502C67.0362 64.6168 71.6483 63.9078 75.8308 62.9403C76.0323 63.7508 76.2146 64.5659 76.3775 65.3849ZM34.435 84.6769C31.3258 85.7754 28.8494 85.807 27.3524 84.9433C24.1671 83.1051 22.8429 76.0081 24.6492 66.4886C24.8639 65.3637 25.1097 64.245 25.3864 63.1337C29.5228 64.0495 34.1013 64.7079 38.9946 65.1051C41.789 69.0394 44.7147 72.6556 47.6633 75.8222C47.0367 76.4289 46.3952 77.0201 45.7395 77.5953C41.8213 81.0224 37.8952 83.454 34.435 84.6769ZM19.869 57.1369C14.945 55.4526 10.8784 53.2637 8.09116 50.8752C5.58631 48.729 4.32206 46.5978 4.32206 44.8689C4.32206 41.1891 9.80392 36.4957 18.9472 33.3058C20.0568 32.919 21.2181 32.5539 22.4232 32.2112C23.6871 36.3244 25.3446 40.6251 27.3449 44.9739C25.3186 49.387 23.6374 53.7564 22.3613 57.9181C21.5243 57.6782 20.6933 57.4177 19.869 57.1369ZM24.7517 23.8764C22.854 14.171 24.1143 6.8498 27.2861 5.0123C30.6643 3.05519 38.1347 5.84559 46.0086 12.8419C46.522 13.2992 47.0271 13.7657 47.5237 14.2412C44.5897 17.394 41.6908 20.9833 38.9212 24.8944C34.1719 25.3349 29.6257 26.0423 25.446 26.9901C25.1885 25.9583 24.957 24.9198 24.7517 23.8764ZM68.3111 34.6401C67.3239 32.9336 66.3 31.2486 65.2402 29.5862C68.4622 29.994 71.5493 30.5352 74.4482 31.1968C73.578 33.9883 72.4932 36.9066 71.2164 39.8987C70.283 38.1267 69.3144 36.3734 68.3111 34.6401ZM50.5477 17.3265C52.5373 19.4837 54.5302 21.892 56.4902 24.5052C52.5141 24.3173 48.5312 24.3165 44.555 24.5028C46.517 21.9137 48.5268 19.5086 50.5477 17.3265ZM32.6702 34.6697C31.6794 36.3891 30.7289 38.1314 29.8194 39.8952C28.5634 36.9137 27.4885 33.982 26.6108 31.151C29.492 30.506 32.5645 29.9786 35.7659 29.5783C34.6943 31.2508 33.6621 32.9487 32.6702 34.6697ZM35.8578 60.4665C32.5503 60.097 29.4316 59.5969 26.5513 58.9693C27.4427 56.0877 28.5413 53.0936 29.8245 50.0482C30.7376 51.8133 31.6921 53.5567 32.6871 55.2769C33.7104 57.0453 34.7699 58.7774 35.8578 60.4665ZM50.6668 72.7152C48.6219 70.5078 46.5825 68.0656 44.5909 65.439C46.5245 65.5148 48.4957 65.5535 50.4991 65.5535C52.5574 65.5535 54.5921 65.5073 56.5948 65.4181C54.6284 68.092 52.643 70.5378 50.6668 72.7152ZM71.257 49.8927C72.6068 52.9716 73.7445 55.9499 74.6478 58.7822C71.7201 59.4508 68.5589 59.9893 65.228 60.3891C66.2953 58.6959 67.3289 56.9816 68.3281 55.2473C69.344 53.4844 70.3205 51.6991 71.257 49.8927ZM64.5913 53.0905C63.0617 55.7495 61.446 58.3582 59.7469 60.9122C56.6692 61.1303 53.5846 61.2386 50.4991 61.237C47.3564 61.237 44.2997 61.1391 41.3563 60.9481C39.6128 58.4 37.9663 55.7868 36.4203 53.1141C34.8816 50.4556 33.4447 47.7396 32.112 44.9719C33.4413 42.2036 34.8743 39.4862 36.4077 36.8257L36.4073 36.8261C37.9402 34.1649 39.5735 31.5629 41.3038 29.0257C44.3068 28.7983 47.3864 28.6799 50.4987 28.6799C53.6253 28.6799 56.7092 28.7995 59.7114 29.0285C61.4242 31.5618 63.0471 34.1549 64.5771 36.8028C66.1157 39.4575 67.5676 42.1616 68.9304 44.9107C67.5816 47.688 66.1343 50.4163 64.5913 53.0905ZM73.4904 4.88361C76.8718 6.83519 78.1869 14.7051 76.0623 25.0255C75.9266 25.6839 75.7744 26.3545 75.6087 27.0347C71.4187 26.0668 66.8694 25.3472 62.1062 24.8999C59.3316 20.9458 56.4563 17.351 53.57 14.2389C54.3265 13.5092 55.1009 12.7985 55.8926 12.1073C63.348 5.61506 70.3158 3.05164 73.4904 4.88361ZM50.4991 35.8452C55.4792 35.8452 59.5166 39.8853 59.5166 44.8689C59.5166 49.8524 55.4792 53.8926 50.4991 53.8926C45.519 53.8926 41.4817 49.8524 41.4817 44.8689C41.4817 39.8853 45.519 35.8452 50.4991 35.8452Z" fill="black"/>
</g>
<defs>
<clipPath id="clip0_723_10">
<rect width="101" height="90" fill="white"/>
</clipPath>
</defs>
</svg>
