<svg width="89" height="85" viewBox="0 0 89 85" fill="none" xmlns="http://www.w3.org/2000/svg">
<path d="M61.667 59.3643C55.409 72.2346 44.4506 80.8941 29.9529 83.7409C27.73 84.2888 25.4481 84.5566 23.1595 84.5383C14.8156 84.5383 7.16695 81.041 3.45388 75.3123C-1.53164 67.681 -3.22824 51.5022 13.2094 39.5342C13.5431 41.3599 14.2246 43.864 14.6765 45.3469C11.4497 47.7584 8.80846 50.8746 6.95139 54.461C3.89194 60.5044 4.23265 66.5409 7.85532 72.1227C10.3585 75.8859 14.3219 78.1731 19.4187 78.8726C25.7847 79.6832 32.2429 78.4597 37.8797 75.3752C46.7173 70.7028 52.6068 65.121 56.4589 57.4897C55.3697 56.3574 54.725 54.8665 54.6441 53.2929C54.5859 51.6043 55.196 49.9614 56.3406 48.7247C57.4851 47.4881 59.0706 46.7588 60.7491 46.6968H60.9855C62.6181 46.6886 64.1914 47.3121 65.3798 48.4382C66.5682 49.5643 67.2808 51.1069 67.3702 52.7468C67.4595 54.3867 66.9187 55.9983 65.8597 57.2483C64.8007 58.4983 63.3046 59.291 61.6809 59.4622L61.667 59.3643ZM81.6021 45.2349C90.0921 54.9157 90.3215 66.3101 87.0396 72.9201C83.9801 78.9565 75.9143 85 65.0671 85C60.0035 84.8961 55.0222 83.6911 50.4652 81.4677C52.0575 80.3275 54.3173 78.5019 55.562 77.3617C59.0761 78.8932 62.8578 79.7064 66.6872 79.754C73.7101 79.754 79.0294 76.4524 82.2001 70.416C84.2374 66.429 84.3556 61.7565 82.4295 56.9721C80.0661 50.9523 75.8606 45.8448 70.4212 42.3881C63.2848 37.5487 54.8718 34.9689 46.2654 34.9807H44.2281C43.753 36.0846 42.9801 37.0327 41.997 37.7176C41.0139 38.4024 39.8598 38.7967 38.6654 38.8557H38.4499C36.7979 38.8353 35.2189 38.1678 34.0482 36.9951C32.8776 35.8224 32.2075 34.2367 32.1804 32.575C32.1532 30.9133 32.7711 29.3063 33.9028 28.0955C35.0345 26.8847 36.5908 26.1654 38.2413 26.0904H38.4707C39.6208 26.0912 40.7485 26.4109 41.7298 27.0143C42.7111 27.6177 43.5081 28.4815 44.0334 29.5108H45.8482C60.3111 29.5108 73.0078 35.0926 81.6021 45.2349ZM24.0635 61.3228C23.9444 60.1613 24.2241 58.9938 24.8562 58.0143C18.5147 46.9626 15.1215 32.9522 20.3296 18.3682C24.0635 7.40742 33.4643 0 43.6579 0C54.5329 0 65.8598 9.57579 67.2157 28.0279C65.5191 27.4613 63.0437 26.6289 61.5557 26.3212C61.1872 20.2847 56.1182 5.24605 44.1099 5.46988C39.8058 5.58879 33.4643 7.63825 30.2032 11.8491C26.1694 16.8756 23.8227 23.0588 23.5003 29.5108C22.7359 38.3575 24.7992 47.2187 29.3897 54.8037C29.6431 54.7106 29.9133 54.6725 30.1824 54.6918H30.4049C32.0867 54.6612 33.7118 55.3039 34.9226 56.4786C36.1333 57.6533 36.8306 59.2637 36.861 60.9556C36.8915 62.6475 36.2525 64.2822 35.0848 65.5002C33.9171 66.7182 32.3162 67.4196 30.6344 67.4502H30.4049C28.7641 67.4444 27.1889 66.8017 26.0075 65.6563C24.8261 64.5109 24.1297 62.951 24.0635 61.3018V61.3228Z" fill="black"/>
</svg>
