<svg width="97" height="112" viewBox="0 0 97 112" fill="none" xmlns="http://www.w3.org/2000/svg">
<g clip-path="url(#clip0_723_18)">
<path d="M29.8107 67.8292C28.049 68.9306 25.3946 70.7158 23.3411 72.6571C19.9699 75.8408 19.2644 80.2569 21.0429 81.2886C22.6879 82.2422 26.5286 81.1075 29.2773 78.1091C32.162 74.9614 33.3517 70.9712 32.123 66.4414C31.9786 66.5274 31.8369 66.6138 31.6979 66.6941L31.7009 66.7005L31.5145 66.8058C30.7973 67.234 30.2112 67.5875 29.8107 67.8288V67.8292ZM79.3183 66.3997C78.3203 68.5687 78.2703 69.2662 78.5734 69.4837C80.0214 68.9635 82.417 67.7098 82.436 64.35C82.439 63.8469 82.328 63.3073 82.1499 62.7428C80.6019 64.1136 79.7096 65.5487 79.3183 66.3997ZM94.8558 59.8429C90.9875 59.3921 87.969 59.9346 85.6265 60.9106C86.0603 62.0396 86.3937 63.2153 86.4407 64.4C86.5494 67.0002 84.7596 68.9245 82.8944 70.2987C81.8052 71.0996 80.6462 71.6334 79.6733 71.9558C78.8954 72.2836 77.8615 72.6227 77.1276 72.473C75.5098 72.1441 74.6487 70.7075 75.7493 67.5371C76.3437 65.8215 78.0585 63.2103 80.8265 60.9606C80.1957 59.6618 79.4925 58.3388 79.1341 57.1226C78.4279 54.7259 78.2146 53.2771 78.2146 53.2771C78.2146 53.2771 75.933 58.0077 72.9896 62.3094C72.8198 62.5595 72.6505 62.8042 72.4808 63.0486C73.0589 64.3924 73.5143 65.8132 73.5761 67.2453C73.6844 69.8455 72.5588 71.8115 70.691 73.1823C69.6798 73.9279 68.6011 74.4428 67.6755 74.7705C67.0837 75.0285 65.8801 75.454 64.1683 75.5684C63.2321 75.6324 62.3315 75.5744 61.8288 75.1933C61.1366 74.6705 61.0532 74.0249 61.4116 73.1436C61.7147 72.395 63.9823 69.8065 65.8835 67.5401C66.3899 66.9334 66.881 66.314 67.3561 65.6825L67.3452 65.6575C67.3452 65.6575 67.6895 65.2131 68.2484 64.4371C67.5535 62.9406 66.6727 61.3834 66.2585 59.971C65.5523 57.5739 65.3386 56.1251 65.3386 56.1251C65.3386 56.1251 63.026 62.054 60.6168 66.7865C58.7523 70.4521 57.507 72.6734 56.9459 73.6471L56.9402 73.6862C56.9402 73.6862 56.8565 73.8282 56.7121 74.0506L56.6041 74.231L56.6011 74.2143C55.9756 75.138 54.5722 76.9475 53.1772 76.9475C49.3476 76.9475 50.7536 69.1696 50.7536 69.1696C50.7536 69.1696 49.634 72.0509 48.372 74.5231C47.3441 76.5387 46.4076 78.2466 44.3594 78.2466C43.7702 78.2466 42.8363 78.23 42.0608 77.4927C40.3017 75.8215 38.9567 71.5777 39.2204 68.291C39.4454 65.4965 39.8762 63.5604 40.4653 61.9457C39.2879 62.5864 38.1205 63.2456 36.9638 63.923L35.0626 65.0433L35.124 65.1547C36.6967 68.1971 37.1165 74.8625 33.687 79.9788C30.2578 85.0981 23.8742 88.2128 17.6546 86.4833C15.6477 85.9245 12.616 81.7728 15.231 75.9859C17.5375 70.8825 26.7559 66.0583 29.1852 64.8543L29.852 64.4868C25.0085 60.2491 12.9134 54.5319 11.2183 45.75C10.7402 43.2779 11.8992 37.3656 19.158 30.5698C25.2635 24.8549 33.7567 20.4778 41.6023 17.6885C54.7833 13.0034 68.7098 15.7669 70.8524 24.171C72.9589 32.4357 65.7891 42.3216 56.6068 45.8755C48.4084 49.0481 41.63 48.545 38.8453 47.6304C35.6798 46.5904 33.8233 44.5017 33.3706 43.3226C33.1925 42.8608 32.8864 42.0852 33.3706 41.8185C33.6676 41.6541 33.787 41.6935 34.5818 42.5721C35.3381 43.4063 38.3781 45.6447 44.1533 44.9969C59.3081 43.298 68.4371 31.5151 65.5523 25.1747C63.5322 20.7369 51.8516 18.7346 37.2582 26.012C19.444 34.8935 18.4771 42.2156 18.3245 44.9965C17.9073 52.6466 27.7591 56.6706 33.0898 62.3598L33.2952 62.5852C34.2928 62.0347 35.3464 61.4535 36.38 60.8863C38.513 59.7146 40.6475 58.5454 42.7833 57.3788C44.6595 54.652 48.4664 51.6426 51.2151 51.6426C55.6088 51.6426 54.0998 57.9577 54.0998 57.9577C54.0998 57.9577 54.1888 57.669 54.3082 57.6659C54.4332 57.6629 54.917 56.8339 56.2734 57.3287C57.6684 57.841 57.3513 58.82 57.36 58.92C57.3767 59.114 55.7119 64.7285 55.0201 68.33C54.6889 70.0486 54.8807 71.3004 54.9784 71.3004C55.1144 71.3004 55.3925 70.8632 55.6509 70.3938L55.6452 70.3797C55.6452 70.3797 55.8396 70.0236 56.165 69.3844L56.2291 69.2507L56.2317 69.2568C56.7704 68.1939 57.2855 67.1193 57.7767 66.0337C58.9967 63.3448 63.6515 52.9634 64.0463 51.8154C64.4407 50.667 64.6465 49.4793 64.8412 48.9701C65.0329 48.4613 66.6783 48.0775 68.6011 48.0915C70.5243 48.1055 70.7194 48.9261 70.7326 49.0955C70.7467 49.2648 69.8184 51.543 69.6044 53.1528C69.3933 54.763 69.5964 55.5662 69.7714 56.918C69.8855 57.802 70.4383 58.923 71.0918 60.1934C73.0816 56.9396 76.5828 50.7167 76.9192 48.9731C77.1496 47.7804 77.5194 46.6374 77.7141 46.1278C77.9085 45.619 79.5513 45.2355 81.474 45.2492C83.3972 45.2636 83.5915 46.0838 83.6056 46.2532C83.6196 46.4229 82.6883 48.7007 82.4773 50.3109C82.2659 51.9181 82.4693 52.7243 82.644 54.0761C82.7944 55.2325 83.6889 56.787 84.5759 58.5552C86.9961 57.3625 89.8448 56.5619 93.18 56.5452C94.561 56.5369 96.1648 56.6756 96.993 56.934V30.3307C96.993 28.4538 96.031 26.7239 94.4057 25.7869L51.0071 0.702967C50.212 0.242487 49.3094 0 48.3906 0C47.4718 0 46.5692 0.242487 45.7741 0.702967L2.49521 25.7748C0.87212 26.7121 0.00488281 28.4443 0.00488281 30.3182V80.5074C0.00488281 82.3813 0.877424 84.1138 2.49786 85.0508L45.8465 110.142C46.6375 110.603 47.5371 110.847 48.4531 110.847C49.3691 110.847 50.2687 110.603 51.0597 110.142L94.428 85.0504C96.0507 84.1108 96.996 82.3805 96.996 80.507V60.2237C96.4455 60.0615 95.6397 59.9342 94.8558 59.8429ZM48.1667 57.2143C47.2358 58.257 45.6491 60.9462 44.9069 63.1967C43.4312 67.6647 44.0703 72.2063 45.1152 72.4791C46.3352 72.7985 48.3364 66.8255 49.2946 64.4894C49.8951 63.0262 52.2297 56.5335 51.7182 55.6663C51.3189 54.9877 49.6647 55.5355 48.1667 57.2147V57.2143ZM65.0503 72.2752C65.0503 72.2752 64.7559 72.5541 64.8832 72.6314C65.0556 72.7344 65.4281 72.6011 65.8338 72.3893C66.9818 71.6671 69.5578 69.8649 69.5634 67.198C69.5634 67.1199 69.5604 67.0449 69.5551 66.9642C69.0228 67.6624 68.4817 68.3539 67.932 69.0385C67.1205 70.0482 65.0503 72.2752 65.0503 72.2752Z" fill="black"/>
</g>
<defs>
<clipPath id="clip0_723_18">
<rect width="97" height="111.009" fill="white"/>
</clipPath>
</defs>
</svg>
