<svg width="88" height="88" viewBox="0 0 88 88" fill="none" xmlns="http://www.w3.org/2000/svg">
<g clip-path="url(#clip0_723_23)">
<path d="M22.0674 42.2544C21.7236 46.5826 25.526 49.7705 28.121 49.7705C30.7196 49.6494 40.8401 41.1208 40.8401 41.1208C45.6 35.1008 45.6206 32.424 45.6206 30.3201C45.2236 21.0315 28.3008 35.179 22.0674 42.2544ZM63.9301 38.6592C66.2272 33.7975 63.1367 28.3977 56.4144 33.1406C51.0725 36.5358 44.1567 43.5205 40.847 46.2547C39.3118 49.3555 43.2034 57.865 49.3702 53.372C56.6595 48.0762 61.9824 43.0965 63.9301 38.6592ZM70.1864 9.24928L71.6667 0H88V16.884L82.0141 16.9555L74.8065 41.3676C75.2551 49.9833 70.8861 50.1236 70.328 54.0769C68.9253 64.013 57.8138 72.143 53.5655 72.143C50.7322 72.0608 48.6609 68.8134 47.9652 65.9837C55.9539 57.1476 66.6968 50.2037 66.6968 50.2037C67.3676 45.5567 65.8933 44.0772 70.8515 40.1173L75.5829 15.2405C71.5421 12.5721 69.6566 12.6136 70.1864 9.24928ZM38.3058 50.4477C42.4483 58.7947 48.4339 59.0123 57.7139 48.3854C57.9344 49.3678 58.1759 50.3972 57.7328 52.8688C38.8547 69.7536 21.0743 86.1867 15.6621 88H0V83.7994C2.54719 80.267 23.452 63.0247 38.3058 50.4477ZM66.2059 66.6091C65.356 73.8341 58.7689 80.1563 49.9668 88H22.0708L45.5881 68.1905C49.6478 77.4297 56.8587 76.0913 66.2061 66.6091H66.2059ZM33.2166 50.2098L0 78.5218V60.1535L19.5473 44.2406C20.593 50.1636 26.999 55.3792 33.2166 50.2102V50.2098Z" fill="black"/>
</g>
<defs>
<clipPath id="clip0_723_23">
<rect width="88" height="88" fill="white"/>
</clipPath>
</defs>
</svg>
