<svg width="50" height="50" viewBox="0 0 50 50" fill="none" xmlns="http://www.w3.org/2000/svg">
<path d="M43.8457 26.6584L29.7832 40.7209C29.3429 41.1612 28.7457 41.4085 28.123 41.4085C27.5004 41.4085 26.9032 41.1612 26.4629 40.7209C26.0226 40.2806 25.7752 39.6834 25.7752 39.0607C25.7752 38.438 26.0226 37.8409 26.4629 37.4006L36.5234 27.3439H7.8125C7.1909 27.3439 6.59476 27.097 6.15522 26.6574C5.71568 26.2179 5.46875 25.6218 5.46875 25.0002C5.46875 24.3786 5.71568 23.7824 6.15522 23.3429C6.59476 22.9033 7.1909 22.6564 7.8125 22.6564H36.5234L26.4668 12.5939C26.0265 12.1536 25.7791 11.5564 25.7791 10.9338C25.7791 10.3111 26.0265 9.7139 26.4668 9.2736C26.9071 8.8333 27.5043 8.58594 28.127 8.58594C28.7496 8.58594 29.3468 8.8333 29.7871 9.2736L43.8496 23.3361C44.0681 23.5541 44.2415 23.8132 44.3596 24.0984C44.4777 24.3836 44.5383 24.6893 44.538 24.998C44.5376 25.3067 44.4763 25.6123 44.3575 25.8973C44.2387 26.1822 44.0648 26.4408 43.8457 26.6584Z" fill="#FF0000"/>
</svg>
