<svg width="50" height="50" viewBox="0 0 50 50" fill="none" xmlns="http://www.w3.org/2000/svg">
<path d="M6.1543 23.3416L20.2168 9.27913C20.6571 8.83883 21.2543 8.59148 21.877 8.59148C22.4996 8.59148 23.0968 8.83883 23.5371 9.27913C23.9774 9.71944 24.2248 10.3166 24.2248 10.9393C24.2248 11.562 23.9774 12.1591 23.5371 12.5994L13.4766 22.6561L42.1875 22.6561C42.8091 22.6561 43.4052 22.903 43.8448 23.3426C44.2843 23.7821 44.5313 24.3782 44.5313 24.9998C44.5313 25.6214 44.2843 26.2176 43.8448 26.6571C43.4052 27.0967 42.8091 27.3436 42.1875 27.3436L13.4766 27.3436L23.5332 37.4061C23.9735 37.8464 24.2209 38.4436 24.2209 39.0662C24.2209 39.6889 23.9735 40.2861 23.5332 40.7264C23.0929 41.1667 22.4957 41.4141 21.873 41.4141C21.2504 41.4141 20.6532 41.1667 20.2129 40.7264L6.1504 26.6639C5.93186 26.4459 5.75854 26.1868 5.64041 25.9016C5.52228 25.6164 5.46166 25.3107 5.46202 25.002C5.46238 24.6933 5.52373 24.3877 5.64253 24.1027C5.76133 23.8178 5.93525 23.5592 6.1543 23.3416Z" fill="#FF0000"/>
</svg>
